<svg width="260" height="86" viewBox="0 0 260 86" fill="none" xmlns="http://www.w3.org/2000/svg">
<path d="M34.0195 0.310059C38.6195 0.310059 42.9595 1.42005 47.0295 3.65005C51.0995 5.88005 54.6496 8.93007 57.6696 12.8201C60.6896 16.7101 63.0596 21.2501 64.7996 26.4601C66.5296 31.6701 67.3995 37.2101 67.3995 43.1001C67.3995 48.9901 66.5296 54.5301 64.7996 59.7401C63.0596 64.9501 60.6896 69.4901 57.6696 73.3801C54.6496 77.2701 51.1095 80.32 47.0295 82.55C42.9595 84.7801 38.6195 85.8901 34.0195 85.8901C29.4195 85.8901 24.9795 84.7801 20.9495 82.55C16.9095 80.33 13.3696 77.2701 10.3096 73.3801C7.24957 69.5001 4.85951 64.9501 3.11951 59.7401C1.37951 54.5301 0.519531 48.9901 0.519531 43.1001C0.519531 37.2101 1.38951 31.6701 3.11951 26.4601C4.84951 21.2501 7.24957 16.7101 10.3096 12.8201C13.3696 8.94007 16.9095 5.88005 20.9495 3.65005C24.9895 1.43005 29.3395 0.310059 34.0195 0.310059ZM47.7095 77.9401C49.3695 77.1901 50.6095 75.7201 51.4395 73.5301C52.2695 71.3401 52.6796 68.59 52.6796 65.2701C52.6796 61.2701 52.1895 57.1001 51.2095 52.7701C50.2295 48.43 48.9095 44.2301 47.2495 40.1501C45.5895 36.0801 43.6995 32.21 41.5895 28.55C39.4795 24.89 37.2895 21.6901 35.0295 18.9301C32.7695 16.1801 30.5395 13.9901 28.3495 12.3701C26.1595 10.7501 24.1995 9.94006 22.4695 9.94006C20.0495 9.94006 18.2396 11.1501 17.0396 13.5601C15.8296 15.9801 15.2295 19.1101 15.2295 22.9501C15.2295 26.7901 15.7195 31.1201 16.6995 35.4501C17.6795 39.7901 18.9995 44.0101 20.6595 48.1201C22.3195 52.2301 24.2095 56.1201 26.3195 59.7801C28.4295 63.4401 30.6195 66.6501 32.8795 69.4001C35.1395 72.1501 37.3696 74.34 39.5596 75.9601C41.7496 77.5801 43.7496 78.3901 45.5596 78.3901C46.3896 78.3901 47.1095 78.2401 47.7095 77.9401Z" fill="white"/>
<path d="M138.92 0.759918V85.5199H120.25V18.9799L96.9403 66.9599L78.1504 16.4899C78.0704 17.3199 78.0404 18.1099 78.0404 18.8699V21.2499C78.0404 26.6799 78.3604 31.6599 79.0004 36.1899C79.6404 40.7199 80.4103 44.7699 81.3203 48.3599C82.2303 51.9399 83.2004 55.0799 84.2604 57.7499C85.3204 60.4299 86.2603 62.7099 87.0903 64.5999C87.9203 66.4899 88.5403 68.5399 88.9603 70.7699C89.3703 72.9999 89.6804 75.1299 89.8704 77.1599C90.0604 79.1999 90.1703 80.9899 90.2103 82.5399C90.2503 84.0899 90.2704 85.0899 90.2704 85.5399H71.8203V0.669922H90.2704L103.96 40.8399L120.93 0.779907H138.92V0.759918Z" fill="white"/>
<path d="M177.73 0.310059C182.33 0.310059 186.67 1.42005 190.74 3.65005C194.81 5.88005 198.36 8.93007 201.38 12.8201C204.4 16.7101 206.77 21.2501 208.51 26.4601C210.241 31.6701 211.11 37.2101 211.11 43.1001C211.11 48.9901 210.241 54.5301 208.51 59.7401C206.77 64.9501 204.4 69.4901 201.38 73.3801C198.36 77.2701 194.82 80.32 190.74 82.55C186.67 84.7801 182.33 85.8901 177.73 85.8901C173.13 85.8901 168.691 84.7801 164.661 82.55C160.621 80.33 157.081 77.2701 154.021 73.3801C150.961 69.5001 148.57 64.9501 146.83 59.7401C145.09 54.5301 144.23 48.9901 144.23 43.1001C144.23 37.2101 145.1 31.6701 146.83 26.4601C148.56 21.2501 150.961 16.7101 154.021 12.8201C157.081 8.94007 160.621 5.88005 164.661 3.65005C168.701 1.43005 173.05 0.310059 177.73 0.310059ZM191.421 77.9401C193.081 77.1901 194.321 75.7201 195.151 73.5301C195.981 71.3401 196.391 68.59 196.391 65.2701C196.391 61.2701 195.901 57.1001 194.921 52.7701C193.941 48.43 192.62 44.2301 190.96 40.1501C189.3 36.0801 187.411 32.21 185.301 28.55C183.191 24.89 181 21.6901 178.74 18.9301C176.48 16.1801 174.251 13.9901 172.061 12.3701C169.871 10.7501 167.911 9.94006 166.181 9.94006C163.761 9.94006 161.95 11.1501 160.75 13.5601C159.54 15.9801 158.94 19.1101 158.94 22.9501C158.94 26.7901 159.431 31.1201 160.411 35.4501C161.391 39.7901 162.71 44.0101 164.37 48.1201C166.03 52.2301 167.921 56.1201 170.031 59.7801C172.141 63.4401 174.33 66.6501 176.59 69.4001C178.85 72.1501 181.081 74.34 183.271 75.9601C185.461 77.5801 187.461 78.3901 189.271 78.3901C190.101 78.3901 190.821 78.2401 191.421 77.9401Z" fill="white"/>
<path d="M248.12 77.4899C249.55 76.5799 250.97 74.9599 252.36 72.6199C253.76 70.2799 255.02 67.9099 256.15 65.4899C257.51 62.6199 258.79 59.5699 260 56.3199V84.9499H216.43V0.419922H231.93V78.0499C232.76 78.2799 233.97 78.5399 235.55 78.8399C237.13 79.1399 238.83 79.2899 240.64 79.2899C242 79.2899 243.32 79.1599 244.6 78.8899C245.88 78.6299 247.05 78.1499 248.11 77.4799L248.12 77.4899Z" fill="white"/>
</svg>
